# xmcd
#
# Track frame offsets:
#  150
#  2937
#  19279
#  49196
#  77773
#  94679
#  112853
#  131429
#  151239
#  167450
#  182013
#  195650
#  219551
#  234104
#  247615
#
# Disc length: 3778 seconds
#
# Revision: 0
# Processed by: cddbd v1.5.1PL0 Copyright (c) Steve Scherf et al.
# Submitted via: Collectorz.com_Music_Collector 6.9
#
DISCID=ac0ec00f
DTITLE=Rod 'Beachhead' Jeffery - Beachhead's Blues
DYEAR=2004
DGENRE=Blues -  Blues Jazz
TTITLE0=Blues Fanfare
TTITLE1=Twenty Years On
TTITLE2=Doctor Blues
TTITLE3=God Bless The Child
TTITLE4=I Can't Quit You
TTITLE5=Boy On The Run
TTITLE6=I Get Evil
TTITLE7=Honey Hush
TTITLE8=(Just A) Little Bit
TTITLE9=Born Under A Bad Sign
TTITLE10=Spoonful
TTITLE11=Need Your Love So Bad
TTITLE12=Messin' With The Kid
TTITLE13=Walkin' To My Baby
TTITLE14=Route 66
EXTD=
EXTT0=
EXTT1=
EXTT2=
EXTT3=
EXTT4=
EXTT5=
EXTT6=
EXTT7=
EXTT8=
EXTT9=
EXTT10=
EXTT11=
EXTT12=
EXTT13=
EXTT14=
PLAYORDER=
